<svg xmlns="http://www.w3.org/2000/svg" viewBox="0 0 640 260" role="img" aria-labelledby="title">
  <title id="title">AlgoArena</title>
  <defs>
    <linearGradient id="mark" x1="90" y1="20" x2="520" y2="210" gradientUnits="userSpaceOnUse">
      <stop offset="0" stop-color="#39d8f2"/>
      <stop offset="1" stop-color="#1766d8"/>
    </linearGradient>
    <linearGradient id="word" x1="32" y1="218" x2="616" y2="218" gradientUnits="userSpaceOnUse">
      <stop offset="0" stop-color="#52e6ef"/>
      <stop offset="1" stop-color="#1c6dde"/>
    </linearGradient>
  </defs>
  <g fill="none" stroke="url(#mark)" stroke-width="11" stroke-linecap="round" stroke-linejoin="round">
    <path d="M265 29c80 1 126 33 151 81 20 38 7 82-27 126"/>
    <path d="M265 29c52 29 82 68 91 116 8 44-15 80-65 111"/>
    <path d="M206 119c45-8 82-2 117 17 34 19 58 48 79 91"/>
    <path d="M188 196c53-10 98-35 135-76"/>
    <path d="M188 196c44 17 78 37 116 59"/>
    <path d="M206 119c16-34 43-61 82-86"/>
    <path d="M291 256c18-32 48-47 91-42 37 5 57-2 63-18 6-17-16-58-37-94"/>
  </g>
  <g fill="url(#mark)">
    <circle cx="206" cy="119" r="24"/>
    <circle cx="281" cy="72" r="25"/>
    <circle cx="337" cy="139" r="25"/>
    <circle cx="397" cy="177" r="20"/>
    <circle cx="286" cy="201" r="20"/>
    <circle cx="188" cy="196" r="21"/>
    <circle cx="260" cy="28" r="20"/>
    <circle cx="372" cy="58" r="16"/>
    <circle cx="132" cy="144" r="18"/>
    <circle cx="131" cy="54" r="21"/>
    <circle cx="72" cy="78" r="26"/>
    <circle cx="197" cy="35" r="18"/>
    <circle cx="202" cy="170" r="17"/>
  </g>
  <text x="32" y="248" fill="url(#word)" font-family="Montserrat, Inter, Arial, sans-serif" font-size="72" font-weight="800" letter-spacing="0">AlgoArena</text>
</svg>
